<?xml version="1.0" standalone="no"?>
<!DOCTYPE svg PUBLIC "-//W3C//DTD SVG 20010904//EN"
 "http://www.w3.org/TR/2001/REC-SVG-20010904/DTD/svg10.dtd">
<svg version="1.0" xmlns="http://www.w3.org/2000/svg"
 width="640.000000pt" height="640.000000pt" viewBox="0 0 640.000000 640.000000"
 preserveAspectRatio="xMidYMid meet">
<metadata>
Created by potrace 1.16, written by Peter Selinger 2001-2019
</metadata>
<g transform="translate(0.000000,640.000000) scale(0.100000,-0.100000)"
fill="#000000" stroke="none">
<path d="M3666 5835 c-231 -58 -427 -256 -480 -485 -23 -96 -21 -249 5 -340
38 -139 123 -266 232 -347 213 -158 471 -184 702 -69 528 262 483 1015 -73
1224 -56 21 -87 26 -197 28 -91 2 -148 -1 -189 -11z"/>
<path d="M1250 4777 c-15 -7 -26 -23 -28 -37 -3 -27 202 -1252 213 -1269 11
-18 80 -13 98 7 16 17 10 60 -89 648 -72 428 -111 635 -122 647 -18 20 -38 21
-72 4z"/>
<path d="M4197 4540 c-89 -23 -202 -104 -238 -171 -12 -23 -11 -23 7 -9 10 7
45 36 77 63 101 85 202 107 309 67 58 -22 124 -82 153 -140 23 -46 31 -156 15
-206 -21 -63 -64 -118 -147 -185 -70 -56 -271 -193 -296 -202 -6 -2 1 -36 17
-83 73 -221 84 -483 31 -738 -8 -38 -17 -71 -20 -74 -2 -3 -76 -11 -162 -18
-87 -7 -188 -16 -225 -20 l-68 -7 0 -318 0 -319 48 8 c89 13 790 8 875 -7 276
-49 563 154 618 437 15 82 6 418 -16 562 -62 404 -215 771 -447 1071 -168 218
-267 287 -416 295 -42 2 -94 -1 -115 -6z"/>
<path d="M4170 4465 c-26 -8 -71 -36 -105 -66 -213 -183 -550 -338 -877 -403
-186 -38 -274 -47 -498 -54 -201 -7 -206 -8 -253 -35 -93 -55 -142 -165 -119
-267 14 -62 55 -125 101 -156 l36 -24 -466 0 c-363 0 -469 -3 -483 -13 -13
-10 -17 -24 -14 -57 l3 -45 657 -3 657 -2 12 21 c6 12 9 34 7 50 -5 34 -4 35
122 44 482 34 1022 232 1365 500 151 118 192 185 182 295 -9 106 -74 186 -173
216 -58 17 -95 17 -154 -1z"/>
<path d="M5300 3890 c-19 -19 -20 -33 -20 -509 l0 -490 25 -19 25 -20 0 -346
0 -346 -763 0 c-727 0 -765 -1 -780 -18 -10 -10 -17 -35 -17 -55 0 -67 -2 -67
412 -67 l368 0 0 -468 0 -467 -327 -96 -328 -95 -10 -38 c-7 -30 -6 -44 7 -66
13 -23 13 -31 2 -51 -7 -13 -13 -41 -14 -62 0 -31 7 -46 34 -73 29 -29 41 -34
82 -34 75 1 114 41 114 120 0 33 -6 48 -30 71 -18 19 -25 31 -17 34 39 13 565
128 582 127 20 0 547 -118 574 -128 11 -3 8 -11 -13 -33 -34 -36 -43 -88 -22
-129 23 -45 53 -62 109 -62 40 0 53 5 78 29 24 25 29 38 29 78 0 27 -7 58 -15
70 -13 18 -13 22 0 33 17 14 20 91 4 107 -5 5 -163 55 -350 109 l-339 99 0
462 0 463 383 0 c432 0 427 -1 427 69 0 42 -23 71 -58 71 l-22 0 0 350 c0 209
4 350 9 350 5 0 17 7 25 16 14 14 16 74 16 509 l0 494 -22 15 c-34 24 -133 21
-158 -4z"/>
<path d="M530 3270 c-27 -27 -28 -128 -2 -159 15 -18 28 -21 120 -22 l102 -1
0 -1227 c0 -979 3 -1231 13 -1245 10 -14 25 -16 77 -14 l65 3 3 1108 2 1107
1270 0 1270 0 0 -1094 c0 -602 3 -1101 6 -1110 9 -23 139 -23 148 0 3 9 6 568
6 1244 l0 1228 83 1 c103 1 117 14 117 102 0 46 -5 64 -20 79 -20 20 -33 20
-1630 20 -1597 0 -1610 0 -1630 -20z"/>
<path d="M3293 2741 c-276 -96 -357 -241 -378 -671 -14 -277 49 -1126 90
-1224 55 -131 230 -197 355 -133 l45 22 3 1018 c2 964 1 1017 -15 1017 -10 0
-55 -13 -100 -29z"/>
</g>
</svg>
